Normalized EMG Linear Envelopes
nRows=250
nColumns=4

endheader
time	 med_gas_r	  soleus_r	 tib_ant_r	
3.65904	  0.094286	  0.105631	  0.053707	
3.6923	  0.095249	  0.106220	  0.055310	
3.72557	  0.096247	  0.106881	  0.056929	
3.75883	  0.096996	  0.107341	  0.058107	
3.7921	  0.097268	  0.107593	  0.058664	
3.82536	  0.096885	  0.107501	  0.058961	
3.85862	  0.095883	  0.106841	  0.059138	
3.89189	  0.094817	  0.105809	  0.058770	
3.92515	  0.094066	  0.104600	  0.057722	
3.95842	  0.093572	  0.103135	  0.056502	
3.99168	  0.093301	  0.101396	  0.055541	
4.02494	  0.093369	  0.099770	  0.054894	
4.05821	  0.093996	  0.098637	  0.054713	
4.09147	  0.095279	  0.098102	  0.055156	
4.12474	  0.097096	  0.097974	  0.055952	
4.158	  0.099127	  0.098178	  0.056752	
4.19126	  0.101044	  0.098642	  0.057538	
4.22453	  0.102690	  0.099316	  0.058180	
4.25779	  0.103767	  0.099995	  0.058171	
4.29106	  0.103882	  0.100493	  0.057270	
4.32432	  0.103040	  0.100876	  0.055768	
4.35758	  0.101687	  0.101386	  0.054159	
4.39085	  0.100352	  0.102188	  0.052880	
4.42411	  0.099145	  0.103418	  0.052275	
4.45738	  0.098056	  0.104778	  0.052291	
4.49064	  0.097296	  0.105766	  0.052580	
4.5239	  0.097010	  0.105983	  0.053092	
4.55717	  0.097355	  0.105313	  0.053850	
4.59043	  0.098256	  0.103990	  0.054625	
4.6237	  0.099408	  0.102461	  0.055452	
4.65696	  0.100744	  0.101208	  0.056385	
4.69022	  0.102540	  0.100594	  0.057617	
4.72349	  0.105145	  0.100795	  0.059834	
4.75675	  0.108749	  0.102029	  0.063813	
4.79002	  0.113228	  0.104463	  0.070558	
4.82328	  0.117962	  0.107802	  0.081244	
4.85654	  0.122246	  0.111575	  0.097099	
4.88981	  0.125421	  0.115685	  0.118771	
4.92307	  0.127774	  0.120171	  0.145578	
4.95634	  0.130074	  0.125100	  0.175249	
4.9896	  0.133103	  0.130243	  0.204180	
5.02286	  0.137296	  0.134874	  0.229687	
5.05613	  0.141904	  0.138130	  0.251849	
5.08939	  0.146276	  0.139011	  0.270172	
5.12266	  0.150526	  0.137263	  0.285386	
5.15592	  0.154172	  0.133601	  0.298043	
5.18918	  0.156926	  0.129089	  0.307832	
5.22245	  0.159117	  0.125024	  0.314439	
5.25571	  0.160801	  0.122297	  0.316688	
5.28898	  0.162512	  0.121032	  0.314333	
5.32224	  0.164710	  0.120910	  0.310191	
5.3555	  0.166746	  0.121382	  0.307092	
5.38877	  0.168052	  0.122016	  0.306687	
5.42203	  0.168854	  0.122808	  0.310591	
5.4553	  0.169583	  0.123609	  0.320249	
5.48856	  0.170874	  0.123946	  0.335332	
5.52182	  0.173204	  0.124497	  0.354465	
5.55509	  0.176969	  0.126151	  0.374980	
5.58835	  0.182174	  0.129261	  0.396192	
5.62162	  0.188167	  0.133483	  0.416824	
5.65488	  0.193271	  0.137554	  0.432827	
5.68814	  0.196407	  0.140727	  0.440136	
5.72141	  0.197719	  0.142874	  0.436321	
5.75467	  0.197186	  0.143051	  0.421342	
5.78794	  0.194957	  0.141075	  0.397739	
5.8212	  0.191660	  0.138110	  0.370670	
5.85446	  0.187835	  0.135015	  0.345148	
5.88773	  0.185100	  0.132607	  0.323269	
5.92099	  0.184353	  0.131574	  0.305896	
5.95426	  0.185405	  0.132519	  0.294021	
5.98752	  0.187965	  0.135195	  0.287483	
6.02078	  0.191773	  0.138827	  0.283890	
6.05405	  0.197155	  0.143003	  0.282500	
6.08731	  0.203736	  0.147530	  0.283600	
6.12058	  0.209919	  0.151995	  0.288370	
6.15384	  0.213564	  0.155110	  0.295726	
6.1871	  0.213680	  0.155203	  0.301422	
6.22037	  0.211581	  0.151476	  0.304769	
6.25363	  0.209175	  0.144830	  0.307104	
6.2869	  0.207913	  0.136839	  0.307938	
6.32016	  0.208016	  0.128954	  0.304460	
6.35342	  0.209037	  0.122453	  0.298012	
6.38669	  0.210176	  0.117870	  0.291386	
6.41995	  0.209872	  0.114894	  0.285675	
6.45322	  0.207544	  0.113140	  0.280989	
6.48648	  0.204051	  0.112774	  0.276782	
6.51974	  0.200700	  0.113443	  0.273428	
6.55301	  0.198540	  0.114495	  0.271185	
6.58627	  0.197728	  0.115488	  0.268754	
6.61954	  0.196717	  0.116656	  0.263770	
6.6528	  0.194622	  0.118148	  0.255657	
6.68606	  0.192175	  0.119965	  0.247369	
6.71933	  0.190149	  0.121695	  0.240319	
6.75259	  0.188288	  0.123260	  0.234466	
6.78586	  0.185634	  0.124814	  0.230154	
6.81912	  0.182974	  0.126808	  0.226102	
6.85238	  0.181265	  0.130066	  0.221974	
6.88565	  0.180961	  0.134420	  0.219201	
6.91891	  0.181539	  0.139107	  0.217836	
6.95218	  0.182355	  0.143174	  0.216955	
6.98544	  0.182781	  0.146073	  0.216379	
7.0187	  0.183390	  0.147766	  0.215630	
7.05197	  0.184338	  0.147748	  0.214368	
7.08523	  0.185721	  0.145607	  0.212757	
7.1185	  0.187313	  0.141852	  0.209841	
7.15176	  0.188056	  0.137615	  0.206611	
7.18502	  0.187051	  0.134099	  0.203906	
7.21829	  0.184306	  0.131812	  0.202114	
7.25155	  0.181126	  0.131203	  0.201723	
7.28482	  0.178950	  0.132544	  0.202090	
7.31808	  0.177896	  0.135697	  0.202481	
7.35134	  0.177476	  0.139976	  0.202401	
7.38461	  0.178106	  0.144175	  0.202136	
7.41787	  0.179693	  0.147199	  0.202165	
7.45114	  0.181744	  0.148070	  0.202103	
7.4844	  0.183231	  0.146666	  0.201074	
7.51766	  0.183338	  0.143363	  0.197923	
7.55093	  0.182372	  0.139130	  0.193767	
7.58419	  0.180622	  0.135140	  0.189920	
7.61746	  0.178063	  0.131949	  0.186768	
7.65072	  0.175887	  0.129846	  0.184097	
7.68398	  0.175516	  0.129136	  0.181087	
7.71725	  0.177198	  0.129764	  0.177324	
7.75051	  0.179787	  0.131557	  0.173537	
7.78378	  0.182488	  0.134477	  0.170414	
7.81704	  0.185349	  0.138646	  0.167966	
7.8503	  0.188026	  0.144021	  0.165812	
7.88357	  0.190274	  0.149771	  0.163307	
7.91683	  0.191569	  0.154780	  0.161123	
7.9501	  0.191620	  0.158297	  0.161042	
7.98336	  0.190675	  0.160495	  0.163442	
8.01662	  0.188880	  0.161355	  0.168246	
8.04989	  0.186666	  0.160612	  0.175754	
8.08315	  0.184473	  0.158501	  0.186235	
8.11642	  0.182707	  0.155615	  0.198364	
8.14968	  0.181315	  0.152887	  0.210143	
8.18294	  0.179306	  0.150463	  0.219639	
8.21621	  0.176200	  0.148088	  0.225490	
8.24947	  0.172473	  0.145628	  0.227945	
8.28274	  0.169390	  0.142838	  0.228307	
8.316	  0.168194	  0.140651	  0.228126	
8.34926	  0.169678	  0.140123	  0.227207	
8.38253	  0.173431	  0.141208	  0.225099	
8.41579	  0.178101	  0.142895	  0.221974	
8.44906	  0.181648	  0.143742	  0.217661	
8.48232	  0.182398	  0.142904	  0.212226	
8.51558	  0.181005	  0.140812	  0.206358	
8.54885	  0.179237	  0.137995	  0.200357	
8.58211	  0.177891	  0.134543	  0.195445	
8.61538	  0.177322	  0.130528	  0.191776	
8.64864	  0.177689	  0.126682	  0.189332	
8.6819	  0.178164	  0.123498	  0.188666	
8.71517	  0.178075	  0.121368	  0.189231	
8.74843	  0.177528	  0.120661	  0.190680	
8.7817	  0.176614	  0.121407	  0.191729	
8.81496	  0.175229	  0.123513	  0.191234	
8.84822	  0.173132	  0.126588	  0.189832	
8.88149	  0.169869	  0.130334	  0.187364	
8.91475	  0.165184	  0.134402	  0.184650	
8.94802	  0.159838	  0.137952	  0.181967	
8.98128	  0.155227	  0.140413	  0.178909	
9.01454	  0.152752	  0.141930	  0.175320	
9.04781	  0.152910	  0.143161	  0.170687	
9.08107	  0.155164	  0.145011	  0.164424	
9.11434	  0.158829	  0.148016	  0.157734	
9.1476	  0.163457	  0.151910	  0.151999	
9.18086	  0.168171	  0.155902	  0.147928	
9.21413	  0.171977	  0.159368	  0.145349	
9.24739	  0.175297	  0.162121	  0.144176	
9.28066	  0.178469	  0.164206	  0.144044	
9.31392	  0.181225	  0.166079	  0.145077	
9.34718	  0.183231	  0.167964	  0.147084	
9.38045	  0.184607	  0.170011	  0.149832	
9.41371	  0.185443	  0.172028	  0.153440	
9.44698	  0.186150	  0.173188	  0.157264	
9.48024	  0.186580	  0.173063	  0.161225	
9.5135	  0.186726	  0.171615	  0.166089	
9.54677	  0.186603	  0.168701	  0.172209	
9.58003	  0.186011	  0.165021	  0.178121	
9.6133	  0.184383	  0.161861	  0.182247	
9.64656	  0.182357	  0.160180	  0.185351	
9.67982	  0.181099	  0.160172	  0.188716	
9.71309	  0.180897	  0.161538	  0.191984	
9.74635	  0.181456	  0.163772	  0.194344	
9.77962	  0.182244	  0.166187	  0.194099	
9.81288	  0.182717	  0.168720	  0.190379	
9.84614	  0.183232	  0.171862	  0.184980	
9.87941	  0.184424	  0.175762	  0.179381	
9.91267	  0.185866	  0.179556	  0.174011	
9.94594	  0.187312	  0.181631	  0.169537	
9.9792	  0.188784	  0.181418	  0.165419	
10.0125	  0.190414	  0.179222	  0.160361	
10.0457	  0.192384	  0.174442	  0.154866	
10.079	  0.194095	  0.167252	  0.150696	
10.1123	  0.195327	  0.159113	  0.148701	
10.1455	  0.196009	  0.151423	  0.149220	
10.1788	  0.196284	  0.145298	  0.151747	
10.212	  0.195865	  0.141472	  0.154832	
10.2453	  0.195276	  0.139778	  0.158454	
10.2786	  0.194546	  0.139407	  0.162469	
10.3118	  0.193151	  0.139500	  0.165482	
10.3451	  0.191328	  0.140279	  0.167031	
10.3784	  0.190336	  0.142405	  0.167241	
10.4116	  0.190182	  0.145691	  0.165465	
10.4449	  0.190358	  0.149295	  0.162835	
10.4782	  0.190605	  0.151885	  0.161692	
10.5114	  0.191131	  0.152398	  0.162799	
10.5447	  0.192604	  0.150882	  0.165466	
10.578	  0.195101	  0.147708	  0.168682	
10.6112	  0.197158	  0.143443	  0.171104	
10.6445	  0.196771	  0.138618	  0.172309	
10.6777	  0.194619	  0.133397	  0.173339	
10.711	  0.192420	  0.128077	  0.174613	
10.7443	  0.190141	  0.122693	  0.176043	
10.7775	  0.186939	  0.117633	  0.178168	
10.8108	  0.182552	  0.113391	  0.180941	
10.8441	  0.177309	  0.110152	  0.183355	
10.8773	  0.171497	  0.108164	  0.184691	
10.9106	  0.165944	  0.107644	  0.184147	
10.9439	  0.161946	  0.108687	  0.181121	
10.9771	  0.159494	  0.111416	  0.176797	
11.0104	  0.158117	  0.115526	  0.171451	
11.0436	  0.158005	  0.120115	  0.165748	
11.0769	  0.158656	  0.124399	  0.161628	
11.1102	  0.158798	  0.127907	  0.160042	
11.1434	  0.157470	  0.130227	  0.160968	
11.1767	  0.155265	  0.131147	  0.163627	
11.21	  0.152915	  0.131091	  0.166272	
11.2432	  0.150593	  0.130942	  0.168355	
11.2765	  0.148499	  0.130703	  0.168788	
11.3098	  0.146731	  0.129892	  0.167272	
11.343	  0.145313	  0.128377	  0.164846	
11.3763	  0.144255	  0.126096	  0.161353	
11.4096	  0.144437	  0.122994	  0.157356	
11.4428	  0.145996	  0.119514	  0.153853	
11.4761	  0.148219	  0.116021	  0.150478	
11.5093	  0.150590	  0.112390	  0.146921	
11.5426	  0.152295	  0.108988	  0.143634	
11.5759	  0.153229	  0.106564	  0.140464	
11.6091	  0.153492	  0.105720	  0.137724	
11.6424	  0.152335	  0.107092	  0.135675	
11.6757	  0.149852	  0.110728	  0.133955	
11.7089	  0.147079	  0.115864	  0.132570	
11.7422	  0.145244	  0.121236	  0.132147	
11.7755	  0.145164	  0.125719	  0.132821	
11.8087	  0.147445	  0.128972	  0.135044	
11.842	  0.151753	  0.130629	  0.138986	
11.8752	  0.156667	  0.130475	  0.144250	
11.9085	  0.161155	  0.129059	  0.150931	
11.9418	  0.164576	  0.126880	  0.158384	
